<svg width="12" height="12" viewBox="0 0 12 12" fill="none" xmlns="http://www.w3.org/2000/svg">
<path d="M6 10.5C6.89002 10.5 7.76004 10.2361 8.50007 9.74162C9.24009 9.24715 9.81686 8.54434 10.1575 7.72208C10.4981 6.89981 10.5872 5.99501 10.4135 5.1221C10.2399 4.24918 9.81132 3.44736 9.18198 2.81802C8.55264 2.18869 7.75082 1.7601 6.87791 1.58647C6.00499 1.41283 5.10019 1.50195 4.27792 1.84254C3.45566 2.18314 2.75285 2.75991 2.25839 3.49994C1.76392 4.23996 1.5 5.10999 1.5 6C1.5 6.744 1.68 7.445 2 8.0635L1.5 10.5L3.9365 10C4.5545 10.3195 5.2565 10.5 6 10.5Z" stroke="#ABABAB" stroke-width="0.8" stroke-linecap="round" stroke-linejoin="round"/>
</svg>
